<?xml version="1.0" encoding="UTF-8" standalone="no"?>
<!-- Created with Inkscape (http://www.inkscape.org/) -->

<svg
   xmlns:dc="http://purl.org/dc/elements/1.1/"
   xmlns:cc="http://creativecommons.org/ns#"
   xmlns:rdf="http://www.w3.org/1999/02/22-rdf-syntax-ns#"
   xmlns:svg="http://www.w3.org/2000/svg"
   xmlns="http://www.w3.org/2000/svg"
   xmlns:sodipodi="http://sodipodi.sourceforge.net/DTD/sodipodi-0.dtd"
   xmlns:inkscape="http://www.inkscape.org/namespaces/inkscape"
   width="512"
   height="512"
   viewBox="0 0 135.46666 135.46667"
   version="1.1"
   id="svg8"
   inkscape:version="0.92.3 (2405546, 2018-03-11)"
   sodipodi:docname="package.svg">
  <defs
     id="defs2">
    <inkscape:perspective
       sodipodi:type="inkscape:persp3d"
       inkscape:vp_x="0 : 67.733335 : 1"
       inkscape:vp_y="0 : 1000 : 0"
       inkscape:vp_z="135.46666 : 67.733335 : 1"
       inkscape:persp3d-origin="67.73333 : 45.155557 : 1"
       id="perspective4580" />
  </defs>
  <sodipodi:namedview
     id="base"
     pagecolor="#ffffff"
     bordercolor="#666666"
     borderopacity="1.0"
     inkscape:pageopacity="0.0"
     inkscape:pageshadow="2"
     inkscape:zoom="1.4"
     inkscape:cx="-30.070295"
     inkscape:cy="350.06545"
     inkscape:document-units="mm"
     inkscape:current-layer="layer1"
     showgrid="false"
     units="px"
     inkscape:pagecheckerboard="true"
     inkscape:window-width="2560"
     inkscape:window-height="1341"
     inkscape:window-x="-4"
     inkscape:window-y="-4"
     inkscape:window-maximized="1">
    <inkscape:grid
       type="xygrid"
       id="grid875" />
  </sodipodi:namedview>
  <metadata
     id="metadata5">
    <rdf:RDF>
      <cc:Work
         rdf:about="">
        <dc:format>image/svg+xml</dc:format>
        <dc:type
           rdf:resource="http://purl.org/dc/dcmitype/StillImage" />
        <dc:title></dc:title>
      </cc:Work>
    </rdf:RDF>
  </metadata>
  <g
     inkscape:label="Layer 1"
     inkscape:groupmode="layer"
     id="layer1"
     transform="translate(0,-161.53332)">
    <path
       style="fill:#ffffff;stroke:#000000;stroke-width:0.26458332px;stroke-linecap:butt;stroke-linejoin:miter;stroke-opacity:1"
       d="m 67.627499,168.93409 -55.139165,26.85521 0.487589,66.83375 54.689374,25.01068 56.095443,-24.92752 -2.15446,-65.43146 z"
       id="path4596"
       inkscape:connector-curvature="0"
       sodipodi:nodetypes="ccccccc" />
    <g
       id="g873"
       transform="matrix(0.26458333,0,0,0.26458333,5.0535425,166.58686)"
       style="fill:#000000;fill-opacity:1">
      <g
         id="g817"
         style="fill:#000000;fill-opacity:1">
	<path
   id="path815"
   d="m 454.8,111.7 c 0,-1.8 -0.4,-3.6 -1.2,-5.3 -1.6,-3.4 -4.7,-5.7 -8.1,-6.4 L 241.8,1.2 c -3.3,-1.6 -7.2,-1.6 -10.5,0 L 25.6,100.9 c -4,1.9 -6.6,5.9 -6.8,10.4 v 0.1 c 0,0.1 0,0.2 0,0.4 V 362 c 0,4.6 2.6,8.8 6.8,10.8 l 205.7,99.7 c 0.1,0 0.1,0 0.2,0.1 0.3,0.1 0.6,0.2 0.9,0.4 0.1,0 0.2,0.1 0.4,0.1 0.3,0.1 0.6,0.2 0.9,0.3 0.1,0 0.2,0.1 0.3,0.1 0.3,0.1 0.7,0.1 1,0.2 0.1,0 0.2,0 0.3,0 0.4,0 0.9,0.1 1.3,0.1 0.4,0 0.9,0 1.3,-0.1 0.1,0 0.2,0 0.3,0 0.3,0 0.7,-0.1 1,-0.2 0.1,0 0.2,-0.1 0.3,-0.1 0.3,-0.1 0.6,-0.2 0.9,-0.3 0.1,0 0.2,-0.1 0.4,-0.1 0.3,-0.1 0.6,-0.2 0.9,-0.4 0.1,0 0.1,0 0.2,-0.1 l 206.3,-100 c 4.1,-2 6.8,-6.2 6.8,-10.8 V 112 c -0.2,-0.1 -0.2,-0.2 -0.2,-0.3 z M 236.5,25.3 414.9,111.8 349.2,143.7 170.8,57.2 Z m 0,173 L 58.1,111.8 143.3,70.5 321.7,157 Z M 42.8,131.1 224.5,219.2 V 442.5 L 42.8,354.4 Z M 248.5,442.5 V 219.2 l 85.3,-41.4 v 58.4 c 0,6.6 5.4,12 12,12 6.6,0 12,-5.4 12,-12 v -70.1 l 73,-35.4 V 354 Z"
   inkscape:connector-curvature="0"
   style="fill:#000000;fill-opacity:1" />

</g>
      <g
         id="g819"
         style="fill:#000000;fill-opacity:1">
</g>
      <g
         id="g821"
         style="fill:#000000;fill-opacity:1">
</g>
      <g
         id="g823"
         style="fill:#000000;fill-opacity:1">
</g>
      <g
         id="g825"
         style="fill:#000000;fill-opacity:1">
</g>
      <g
         id="g827"
         style="fill:#000000;fill-opacity:1">
</g>
      <g
         id="g829"
         style="fill:#000000;fill-opacity:1">
</g>
      <g
         id="g831"
         style="fill:#000000;fill-opacity:1">
</g>
      <g
         id="g833"
         style="fill:#000000;fill-opacity:1">
</g>
      <g
         id="g835"
         style="fill:#000000;fill-opacity:1">
</g>
      <g
         id="g837"
         style="fill:#000000;fill-opacity:1">
</g>
      <g
         id="g839"
         style="fill:#000000;fill-opacity:1">
</g>
      <g
         id="g841"
         style="fill:#000000;fill-opacity:1">
</g>
      <g
         id="g843"
         style="fill:#000000;fill-opacity:1">
</g>
      <g
         id="g845"
         style="fill:#000000;fill-opacity:1">
</g>
      <g
         id="g847"
         style="fill:#000000;fill-opacity:1">
</g>
    </g>
  </g>
</svg>
